PathFileType	4	(X/Y/Z)	/Users/itak/Documents/Research/Walk-IL/dataset/trc/00120_00007.trc
DataRate	CameraRate	NumFrames	NumMarkers	Units	OrigDataRate	OrigDataStartFrame	OrigNumFrames
100.000000	100.000000	4	53	mm	100.000000	90	723
Frame#	Time	RPSI			LPSI			L3			STRN			T10			C7			CLAV			RBAK			LBAK			LSHO			LUPA			LAEL			LAOL			LWTS			LWPS			LFRA			LIFD			LHPS			LHTS			RSHO			RUPA			RAEL			RAOL			RWTS			RWPS			RFRA			RIFD			RHTS			RHPS			RBHD			LFHD			RFHD			LBHD			LHIP			RHIP			RASI			LASI			LKNE			LTHI			LANK			LTIP			LTOE			LMT1			LMT5			LHEE			RKNE			RTHI			RANK			RTIP			RTOE			RMT1			RMT5			RHEE			
		X1	Y1	Z1	X2	Y2	Z2	X3	Y3	Z3	X4	Y4	Z4	X5	Y5	Z5	X6	Y6	Z6	X7	Y7	Z7	X8	Y8	Z8	X9	Y9	Z9	X10	Y10	Z10	X11	Y11	Z11	X12	Y12	Z12	X13	Y13	Z13	X14	Y14	Z14	X15	Y15	Z15	X16	Y16	Z16	X17	Y17	Z17	X18	Y18	Z18	X19	Y19	Z19	X20	Y20	Z20	X21	Y21	Z21	X22	Y22	Z22	X23	Y23	Z23	X24	Y24	Z24	X25	Y25	Z25	X26	Y26	Z26	X27	Y27	Z27	X28	Y28	Z28	X29	Y29	Z29	X30	Y30	Z30	X31	Y31	Z31	X32	Y32	Z32	X33	Y33	Z33	X34	Y34	Z34	X35	Y35	Z35	X36	Y36	Z36	X37	Y37	Z37	X38	Y38	Z38	X39	Y39	Z39	X40	Y40	Z40	X41	Y41	Z41	X42	Y42	Z42	X43	Y43	Z43	X44	Y44	Z44	X45	Y45	Z45	X46	Y46	Z46	X47	Y47	Z47	X48	Y48	Z48	X49	Y49	Z49	X50	Y50	Z50	X51	Y51	Z51	X52	Y52	Z52	X53	Y53	Z53	

91	0.9	84.28562164306641	1106.970825195312	1209.469848632812	66.45766448974609	1105.394409179688	1075.964233398438	70.70297241210938	1143.299194335938	1143.980346679688	310.3363952636719	1322.829467773438	1127.599609375	59.07280731201172	1297.29443359375	1156.129150390625	121.6262664794922	1585.138793945312	1136.61572265625	289.6341552734375	1460.757446289062	1124.90087890625	61.4307975769043	1408.358154296875	1233.267944335938	101.1491622924805	1566.065307617188	1036.070190429688	177.0355377197266	1540.674072265625	958.0681762695312	131.7247009277344	1412.390014648438	894.435302734375	110.8897857666016	1193.9443359375	875.6697387695312	55.2428092956543	1190.492065429688	943.5758056640625	181.6963348388672	924.849609375	903.9505615234375	92.92877960205078	910.3651733398438	892.9810180664062	109.9455032348633	1076.649169921875	870.8478393554688	172.1448059082031	732.3885498046875	929.1423950195312	110.932975769043	832.1651611328125	888.2786865234375	181.8340911865234	833.9558715820312	892.3260498046875	197.6840057373047	1561.512573242188	1310.3046875	186.2106323242188	1490.41015625	1378.340942382812	174.1797790527344	1197.907592773438	1416.680908203125	149.3188323974609	1191.562377929688	1322.37060546875	306.6447143554688	950.1700439453125	1394.209594726562	236.2676239013672	936.9176025390625	1435.750366210938	198.6986694335938	1124.989868164062	1433.006469726562	324.830078125	755.1421508789062	1383.934692382812	334.5871887207031	841.6947021484375	1402.392578125	272.6753234863281	837.41650390625	1441.450439453125	202.1101989746094	1755.853271484375	1204.782470703125	307.4576721191406	1797.577026367188	1013.317321777344	354.0589294433594	1817.145629882812	1133.552734375	145.9559478759766	1739.549072265625	1082.06396484375	153.1488342285156	1015.013793945312	961.3401489257812	207.2817535400391	1004.997131347656	1319.976928710938	293.5489196777344	1067.923950195312	1265.498046875	262.7718200683594	1075.086791992188	1002.3251953125	393.1779174804688	570.345947265625	969.0105590820312	292.978759765625	686.572509765625	949.9824829101562	440.108154296875	49.91829681396484	997.7689208984375	370.2908935546875	297.2134704589844	966.3643798828125	664.4135131835938	97.72013092041016	1004.759094238281	600.1488037109375	83.50175476074219	1054.432983398438	553.1839599609375	67.40653228759766	949.8250732421875	387.1839294433594	43.47783279418945	1072.576538085938	118.7988510131836	520.235595703125	1286.223510742188	197.5131225585938	792.1051025390625	1309.790649414062	-92.696044921875	38.31252670288086	1269.728515625	65.46640777587891	393.2524108886719	1296.803833007812	145.1737823486328	46.12149810791016	1228.03662109375	85.05820465087891	37.3142204284668	1183.756713867188	42.87755966186523	42.3731803894043	1301.310180664062	-148.4780578613281	43.97379684448242	1219.0947265625	
92	0.91	90.3994140625	1105.513671875	1207.401489257812	72.38315582275391	1103.7919921875	1073.91064453125	76.73506164550781	1141.778564453125	1141.891845703125	316.5204162597656	1321.2412109375	1124.831787109375	65.13848876953125	1295.813354492188	1153.884155273438	127.7745895385742	1583.640991210938	1133.859130859375	295.7719421386719	1459.162475585938	1121.949340820312	67.59844970703125	1406.953247070312	1230.8759765625	107.0964508056641	1564.375244140625	1033.384155273438	182.8313446044922	1538.812377929688	955.1842651367188	137.020751953125	1410.418212890625	892.0110473632812	115.280632019043	1192.044555664062	873.844970703125	60.43704605102539	1188.817138671875	942.4188232421875	184.6944427490234	922.4508056640625	901.3579711914062	95.72377014160156	908.6279296875	891.7796630859375	113.5633087158203	1074.762817382812	869.1403198242188	174.1475372314453	730.08984375	926.8899536132812	113.034782409668	830.2734985351562	886.8068237304688	183.9593200683594	831.5272216796875	889.8201904296875	204.0984191894531	1560.09423828125	1307.4912109375	192.7435607910156	1488.960083007812	1375.522094726562	181.1356964111328	1196.40625	1413.9765625	156.0286560058594	1190.029052734375	1319.735107421875	314.0510864257812	948.9537963867188	1391.017456054688	243.8958129882812	935.524658203125	1432.772583007812	205.7896728515625	1123.487548828125	1430.164794921875	332.7866516113281	754.0033569335938	1380.608764648438	342.3468627929688	840.5653076171875	1399.052856445312	280.480712890625	836.1053466796875	1438.255615234375	208.5092315673828	1754.394409179688	1201.6640625	312.7506713867188	1795.734497070312	1009.545593261719	360.0118103027344	1815.65966796875	1129.468872070312	151.7024536132812	1737.783203125	1079.283325195312	158.7662658691406	1013.278930664062	959.1625366210938	213.5062713623047	1003.526489257812	1317.683471679688	299.746826171875	1066.374877929688	1263.114379882812	268.5732116699219	1073.360961914062	999.9351196289062	398.115966796875	568.9494018554688	965.6996459960938	297.7236633300781	684.5673217773438	947.1206665039062	456.5391235351562	50.37943649291992	993.2073364257812	380.6741638183594	295.9628295898438	963.0033569335938	679.9033813476562	102.7601470947266	997.244873046875	616.7086181640625	87.10544586181641	1047.703979492188	568.568603515625	70.27696990966797	943.7684326171875	404.8734741210938	42.74896240234375	1068.766479492188	123.5665740966797	519.0452270507812	1284.411010742188	203.1695861816406	790.7318115234375	1307.527587890625	-92.49921417236328	39.16348266601562	1269.300170898438	69.22772216796875	392.3656311035156	1295.327026367188	145.4716491699219	45.7132682800293	1227.691040039062	85.19465637207031	36.94803619384766	1183.512573242188	42.91222381591797	42.4117317199707	1300.995361328125	-148.3123779296875	45.44839859008789	1218.944580078125	
93	0.92	96.63350677490234	1104.08349609375	1205.1884765625	78.53278350830078	1102.22412109375	1071.701049804688	82.93014526367188	1140.295532226562	1139.65625	322.8380432128906	1319.666748046875	1121.984252929688	71.37274932861328	1294.356079101562	1151.501953125	134.0614624023438	1582.171264648438	1130.9306640625	302.0615844726562	1457.581787109375	1118.873046875	73.90406799316406	1405.595336914062	1228.345458984375	113.2110290527344	1562.683471679688	1030.539794921875	188.8318634033203	1536.961303710938	952.1561279296875	142.5541229248047	1408.451049804688	889.4168090820312	119.9273071289062	1190.150756835938	871.856201171875	65.78493499755859	1187.169067382812	941.0107421875	187.9527740478516	920.09326171875	898.814453125	98.8607177734375	906.9003295898438	890.5311279296875	117.4958114624023	1072.883422851562	867.30126953125	176.4208221435547	727.8477172851562	924.804443359375	115.5008544921875	828.3949584960938	885.3486938476562	186.4014129638672	829.13330078125	887.4307861328125	210.6571350097656	1558.7314453125	1304.52197265625	199.4123687744141	1487.572387695312	1372.557250976562	188.2509918212891	1194.965454101562	1411.112426757812	162.8891448974609	1188.5595703125	1316.933471679688	321.4652099609375	947.71533203125	1387.658447265625	251.5829315185547	934.1895751953125	1429.690673828125	213.0175323486328	1122.038696289062	1427.153198242188	340.6279907226562	752.833984375	1377.131591796875	350.0474548339844	839.4022827148438	1395.546142578125	288.2335510253906	834.8050537109375	1434.910522460938	215.0142211914062	1752.957275390625	1198.380615234375	318.1747131347656	1793.92626953125	1005.633850097656	366.0874633789062	1814.208618164062	1125.241943359375	157.5877380371094	1736.045043945312	1076.337158203125	164.6589660644531	1011.568298339844	956.8523559570312	219.8421936035156	1002.102294921875	1315.3046875	306.0460815429688	1064.864624023438	1260.697143554688	274.6477355957031	1071.61865234375	997.476318359375	403.0955810546875	567.4000854492188	962.4216918945312	302.6545104980469	682.4881591796875	944.2169189453125	471.9776000976562	50.82566070556641	988.6886596679688	390.5400085449219	294.6722717285156	959.692138671875	694.3477172851562	107.4421844482422	989.1421508789062	632.3829345703125	90.50520324707031	1040.531860351562	582.7645874023438	72.97397613525391	937.4457397460938	421.7810668945312	42.11889266967773	1065.064331054688	128.4559783935547	517.8865966796875	1282.591674804688	208.9095764160156	789.4008178710938	1305.24072265625	-92.2353515625	40.17923355102539	1268.92578125	73.07061767578125	391.5371398925781	1293.850463867188	145.7584991455078	45.3068962097168	1227.413818359375	85.319580078125	36.62844467163086	1183.312377929688	42.93759155273438	42.45574188232422	1300.684814453125	-148.0993347167969	47.21231842041016	1218.8798828125	
94	0.93	103.0020065307617	1102.70703125	1202.810302734375	84.91007232666016	1100.715698242188	1069.322387695312	89.29634857177734	1138.870971679688	1137.257568359375	329.2925109863281	1318.130737304688	1119.0517578125	77.80277252197266	1292.9384765625	1148.9716796875	140.4787750244141	1580.747314453125	1127.82470703125	308.5082092285156	1456.040649414062	1115.671264648438	80.35871124267578	1404.302001953125	1225.67041015625	119.4864807128906	1561.017333984375	1027.525512695312	195.0285949707031	1535.1455078125	948.98095703125	148.3258056640625	1406.512329101562	886.6534423828125	124.8404159545898	1188.288208007812	869.7035522460938	71.29827117919922	1185.568603515625	939.35595703125	191.5000152587891	917.8043823242188	896.3171997070312	102.3552856445312	905.205810546875	889.209716796875	121.7546310424805	1071.036499023438	865.3236083984375	178.9743499755859	725.6858520507812	922.8706665039062	118.3501586914062	826.5560913085938	883.8759765625	189.1906890869141	826.8004150390625	885.15087890625	217.3598327636719	1557.4482421875	1301.388916015625	206.2157135009766	1486.275146484375	1369.442749023438	195.5218963623047	1193.613647460938	1408.089477539062	169.8887176513672	1187.185913085938	1313.970947265625	328.8860473632812	946.4830322265625	1384.125732421875	259.332275390625	932.9447631835938	1426.518188476562	220.3803405761719	1120.673583984375	1423.974365234375	348.3341979980469	751.6583862304688	1373.494018554688	357.6781005859375	838.2282104492188	1391.86572265625	295.9283752441406	833.5390625	1431.411987304688	221.6306457519531	1751.572509765625	1194.9287109375	323.7297058105469	1792.171630859375	1001.577575683594	372.2880554199219	1812.812622070312	1120.866333007812	163.6071624755859	1734.359252929688	1073.223388671875	170.8421325683594	1009.903137207031	954.4072875976562	226.3062896728516	1000.75244140625	1312.828491210938	312.4552307128906	1063.41650390625	1258.23681640625	280.9980163574219	1069.883666992188	994.9461669921875	408.1224975585938	565.7195434570312	959.1984252929688	307.7711181640625	680.35888671875	941.271484375	486.3796691894531	51.20251846313477	984.2350463867188	399.8825073242188	293.3347473144531	956.4214477539062	707.69482421875	111.6397323608398	980.5685424804688	647.0916748046875	93.578369140625	1032.99755859375	595.7379760742188	75.42778778076172	930.9207763671875	437.8065185546875	41.54215621948242	1061.447265625	133.4696807861328	516.7855834960938	1280.771850585938	214.7380981445312	788.1396484375	1302.9248046875	-91.88345336914062	41.40243530273438	1268.617431640625	76.98601531982422	390.7918701171875	1292.384887695312	146.0396575927734	44.91447448730469	1227.209106445312	85.44168853759766	36.3569450378418	1183.156860351562	42.96916961669922	42.51168823242188	1300.394653320312	-147.8454742431641	49.23464584350586	1218.879150390625	
